<svg xmlns="http://www.w3.org/2000/svg" version="1.1" xmlns:xlink="http://www.w3.org/1999/xlink" width="200" height="200"><svg xmlns="http://www.w3.org/2000/svg" version="1.1" xmlns:xlink="http://www.w3.org/1999/xlink" viewBox="0 0 200 200"><rect width="200" height="200" fill="url('#gradient')"></rect><defs><linearGradient id="SvgjsLinearGradient1001" gradientTransform="rotate(40 0.5 0.5)"><stop offset="0%" stop-color="#1b213a"></stop><stop offset="100%" stop-color="#1b213a"></stop></linearGradient></defs><g><g fill="#33ffab" transform="matrix(4.74806800618238,0,0,4.74806800618238,9.480583750321841,125.07300298401893)" stroke="#c08e51" stroke-width="0"><path d="M3.72-10.57L5.21-7.66L6.74-10.57L10.16-10.57L7.37-5.42L10.29 0L6.86 0L5.20-3.13L3.56 0L0.11 0L3.04-5.42L0.26-10.57L3.72-10.57ZM13.25-3.19L13.25-3.19Q14.03-3.19 14.55-2.73Q15.07-2.27 15.07-1.54Q15.07-0.82 14.55-0.36Q14.03 0.11 13.25 0.11L13.25 0.11Q12.46 0.11 11.95-0.36Q11.44-0.83 11.44-1.54Q11.44-2.26 11.95-2.72Q12.46-3.19 13.25-3.19ZM17.20-10.57L20.28-10.57L20.39-9.33Q21.48-10.76 23.41-10.76L23.41-10.76Q25.06-10.76 25.87-9.78Q26.69-8.79 26.72-6.81L26.72-6.81L26.72 0L23.42 0L23.42-6.67Q23.42-7.47 23.10-7.85Q22.77-8.22 21.92-8.22L21.92-8.22Q20.96-8.22 20.49-7.46L20.49-7.46L20.49 0L17.20 0L17.20-10.57ZM34.93 0L34.83-1.14Q33.79 0.20 32.01 0.20L32.01 0.20Q30.27 0.20 29.38-0.82Q28.49-1.83 28.49-3.72L28.49-3.72L28.49-10.57L31.78-10.57L31.78-3.70Q31.78-2.34 33.10-2.34L33.10-2.34Q34.23-2.34 34.71-3.15L34.71-3.15L34.71-10.57L38.02-10.57L38.02 0L34.93 0Z"></path></g></g></svg><style>@media (prefers-color-scheme: light) { :root { filter: none; } }
@media (prefers-color-scheme: dark) { :root { filter: none; } }
</style></svg>